<mxfile host="Electron" modified="2023-12-08T03:08:00.221Z" agent="Mozilla/5.0 (Windows NT 10.0; Win64; x64) AppleWebKit/537.36 (KHTML, like Gecko) draw.io/22.1.2 Chrome/114.0.5735.289 Electron/25.9.4 Safari/537.36" etag="rAsP1IKnVC_YxwLzCjIm" version="22.1.2" type="device" pages="2">
  <diagram name="FlowChart" id="ed0A6GiaXIVk_RpfhYCh">
    <mxGraphModel dx="1418" dy="828" grid="1" gridSize="10" guides="1" tooltips="1" connect="1" arrows="1" fold="1" page="1" pageScale="1" pageWidth="827" pageHeight="1169" math="0" shadow="0">
      <root>
        <mxCell id="0" />
        <mxCell id="1" parent="0" />
        <mxCell id="xlLmN8GQoclTvmBlUf5f-1" value="캐릭터 선택" style="rounded=0;whiteSpace=wrap;html=1;" parent="1" vertex="1">
          <mxGeometry x="80" y="20" width="100" height="60" as="geometry" />
        </mxCell>
        <mxCell id="xlLmN8GQoclTvmBlUf5f-3" value="" style="endArrow=classic;html=1;rounded=0;exitX=0.5;exitY=1;exitDx=0;exitDy=0;" parent="1" source="xlLmN8GQoclTvmBlUf5f-1" edge="1">
          <mxGeometry width="50" height="50" relative="1" as="geometry">
            <mxPoint x="440" y="280" as="sourcePoint" />
            <mxPoint x="130" y="120" as="targetPoint" />
          </mxGeometry>
        </mxCell>
        <mxCell id="xlLmN8GQoclTvmBlUf5f-4" value="팀 내 중복&lt;br&gt;확인" style="rhombus;whiteSpace=wrap;html=1;" parent="1" vertex="1">
          <mxGeometry x="80" y="120" width="100" height="70" as="geometry" />
        </mxCell>
        <mxCell id="xlLmN8GQoclTvmBlUf5f-5" value="" style="endArrow=classic;html=1;rounded=0;exitX=1;exitY=0.5;exitDx=0;exitDy=0;entryX=1;entryY=0.5;entryDx=0;entryDy=0;dashed=1;" parent="1" source="xlLmN8GQoclTvmBlUf5f-4" target="xlLmN8GQoclTvmBlUf5f-1" edge="1">
          <mxGeometry width="50" height="50" relative="1" as="geometry">
            <mxPoint x="440" y="280" as="sourcePoint" />
            <mxPoint x="220" as="targetPoint" />
            <Array as="points">
              <mxPoint x="220" y="155" />
              <mxPoint x="220" y="50" />
            </Array>
          </mxGeometry>
        </mxCell>
        <mxCell id="xlLmN8GQoclTvmBlUf5f-6" value="중복O" style="text;html=1;strokeColor=none;fillColor=none;align=center;verticalAlign=middle;whiteSpace=wrap;rounded=0;" parent="1" vertex="1">
          <mxGeometry x="210" y="90" width="60" height="30" as="geometry" />
        </mxCell>
        <mxCell id="xlLmN8GQoclTvmBlUf5f-7" value="" style="endArrow=classic;html=1;rounded=0;exitX=0.5;exitY=1;exitDx=0;exitDy=0;" parent="1" source="xlLmN8GQoclTvmBlUf5f-4" edge="1">
          <mxGeometry width="50" height="50" relative="1" as="geometry">
            <mxPoint x="140" y="90" as="sourcePoint" />
            <mxPoint x="130" y="230" as="targetPoint" />
          </mxGeometry>
        </mxCell>
        <mxCell id="xlLmN8GQoclTvmBlUf5f-13" style="edgeStyle=orthogonalEdgeStyle;rounded=0;orthogonalLoop=1;jettySize=auto;html=1;" parent="1" source="xlLmN8GQoclTvmBlUf5f-9" target="xlLmN8GQoclTvmBlUf5f-12" edge="1">
          <mxGeometry relative="1" as="geometry" />
        </mxCell>
        <mxCell id="xlLmN8GQoclTvmBlUf5f-9" value="게임 시작" style="rounded=0;whiteSpace=wrap;html=1;" parent="1" vertex="1">
          <mxGeometry x="80" y="230" width="100" height="60" as="geometry" />
        </mxCell>
        <mxCell id="xlLmN8GQoclTvmBlUf5f-11" value="중복X" style="text;html=1;strokeColor=none;fillColor=none;align=center;verticalAlign=middle;whiteSpace=wrap;rounded=0;" parent="1" vertex="1">
          <mxGeometry x="120" y="190" width="60" height="30" as="geometry" />
        </mxCell>
        <mxCell id="xlLmN8GQoclTvmBlUf5f-14" style="edgeStyle=orthogonalEdgeStyle;rounded=0;orthogonalLoop=1;jettySize=auto;html=1;" parent="1" source="xlLmN8GQoclTvmBlUf5f-12" edge="1">
          <mxGeometry relative="1" as="geometry">
            <mxPoint x="450" y="260" as="targetPoint" />
          </mxGeometry>
        </mxCell>
        <mxCell id="xlLmN8GQoclTvmBlUf5f-12" value="공갖고 놀기,&lt;br&gt;사람 패기,&lt;br&gt;기본 경험치 획득" style="rounded=0;whiteSpace=wrap;html=1;" parent="1" vertex="1">
          <mxGeometry x="250" y="230" width="120" height="60" as="geometry" />
        </mxCell>
        <mxCell id="xlLmN8GQoclTvmBlUf5f-22" value="" style="edgeStyle=orthogonalEdgeStyle;rounded=0;orthogonalLoop=1;jettySize=auto;html=1;" parent="1" source="xlLmN8GQoclTvmBlUf5f-18" target="xlLmN8GQoclTvmBlUf5f-21" edge="1">
          <mxGeometry relative="1" as="geometry" />
        </mxCell>
        <mxCell id="xlLmN8GQoclTvmBlUf5f-18" value="득점?" style="rhombus;whiteSpace=wrap;html=1;" parent="1" vertex="1">
          <mxGeometry x="450" y="220" width="120" height="80" as="geometry" />
        </mxCell>
        <mxCell id="xlLmN8GQoclTvmBlUf5f-19" value="" style="endArrow=classic;html=1;rounded=0;exitX=0.5;exitY=0;exitDx=0;exitDy=0;entryX=0.5;entryY=0;entryDx=0;entryDy=0;dashed=1;" parent="1" source="xlLmN8GQoclTvmBlUf5f-18" target="xlLmN8GQoclTvmBlUf5f-12" edge="1">
          <mxGeometry width="50" height="50" relative="1" as="geometry">
            <mxPoint x="480" y="330" as="sourcePoint" />
            <mxPoint x="530" y="280" as="targetPoint" />
            <Array as="points">
              <mxPoint x="510" y="170" />
              <mxPoint x="310" y="170" />
            </Array>
          </mxGeometry>
        </mxCell>
        <mxCell id="xlLmN8GQoclTvmBlUf5f-20" value="X" style="text;html=1;strokeColor=none;fillColor=none;align=center;verticalAlign=middle;whiteSpace=wrap;rounded=0;" parent="1" vertex="1">
          <mxGeometry x="383" y="140" width="60" height="30" as="geometry" />
        </mxCell>
        <mxCell id="xlLmN8GQoclTvmBlUf5f-23" style="edgeStyle=orthogonalEdgeStyle;rounded=0;orthogonalLoop=1;jettySize=auto;html=1;entryX=0.5;entryY=0;entryDx=0;entryDy=0;" parent="1" source="xlLmN8GQoclTvmBlUf5f-21" target="xlLmN8GQoclTvmBlUf5f-12" edge="1">
          <mxGeometry relative="1" as="geometry">
            <Array as="points">
              <mxPoint x="700" y="70" />
              <mxPoint x="310" y="70" />
            </Array>
          </mxGeometry>
        </mxCell>
        <mxCell id="xlLmN8GQoclTvmBlUf5f-38" style="edgeStyle=orthogonalEdgeStyle;rounded=0;orthogonalLoop=1;jettySize=auto;html=1;" parent="1" source="xlLmN8GQoclTvmBlUf5f-21" edge="1">
          <mxGeometry relative="1" as="geometry">
            <mxPoint x="840" y="260" as="targetPoint" />
          </mxGeometry>
        </mxCell>
        <mxCell id="xlLmN8GQoclTvmBlUf5f-21" value="득점 연출(득점, 도움),&lt;br&gt;경험치" style="whiteSpace=wrap;html=1;" parent="1" vertex="1">
          <mxGeometry x="640" y="230" width="130" height="60" as="geometry" />
        </mxCell>
        <mxCell id="xlLmN8GQoclTvmBlUf5f-24" value="" style="endArrow=classic;html=1;rounded=0;entryX=0;entryY=0.5;entryDx=0;entryDy=0;" parent="1" target="xlLmN8GQoclTvmBlUf5f-25" edge="1">
          <mxGeometry width="50" height="50" relative="1" as="geometry">
            <mxPoint x="400" y="260" as="sourcePoint" />
            <mxPoint x="450" y="360" as="targetPoint" />
            <Array as="points">
              <mxPoint x="400" y="350" />
            </Array>
          </mxGeometry>
        </mxCell>
        <mxCell id="xlLmN8GQoclTvmBlUf5f-31" style="edgeStyle=orthogonalEdgeStyle;rounded=0;orthogonalLoop=1;jettySize=auto;html=1;" parent="1" source="xlLmN8GQoclTvmBlUf5f-25" edge="1">
          <mxGeometry relative="1" as="geometry">
            <mxPoint x="640" y="350.0000000000001" as="targetPoint" />
          </mxGeometry>
        </mxCell>
        <mxCell id="xlLmN8GQoclTvmBlUf5f-25" value="플레이어 체력 0" style="rhombus;whiteSpace=wrap;html=1;" parent="1" vertex="1">
          <mxGeometry x="450" y="310" width="120" height="80" as="geometry" />
        </mxCell>
        <mxCell id="xlLmN8GQoclTvmBlUf5f-26" value="" style="endArrow=classic;html=1;rounded=0;entryX=0;entryY=0.5;entryDx=0;entryDy=0;" parent="1" edge="1">
          <mxGeometry width="50" height="50" relative="1" as="geometry">
            <mxPoint x="400" y="350" as="sourcePoint" />
            <mxPoint x="450" y="440" as="targetPoint" />
            <Array as="points">
              <mxPoint x="400" y="440" />
            </Array>
          </mxGeometry>
        </mxCell>
        <mxCell id="xlLmN8GQoclTvmBlUf5f-28" style="edgeStyle=orthogonalEdgeStyle;rounded=0;orthogonalLoop=1;jettySize=auto;html=1;" parent="1" source="xlLmN8GQoclTvmBlUf5f-27" edge="1">
          <mxGeometry relative="1" as="geometry">
            <mxPoint x="640" y="440.0000000000001" as="targetPoint" />
          </mxGeometry>
        </mxCell>
        <mxCell id="xlLmN8GQoclTvmBlUf5f-27" value="맞아서 장외" style="rhombus;whiteSpace=wrap;html=1;" parent="1" vertex="1">
          <mxGeometry x="450" y="400" width="120" height="80" as="geometry" />
        </mxCell>
        <mxCell id="xlLmN8GQoclTvmBlUf5f-30" style="edgeStyle=orthogonalEdgeStyle;rounded=0;orthogonalLoop=1;jettySize=auto;html=1;entryX=0.5;entryY=1;entryDx=0;entryDy=0;" parent="1" source="xlLmN8GQoclTvmBlUf5f-29" target="xlLmN8GQoclTvmBlUf5f-12" edge="1">
          <mxGeometry relative="1" as="geometry">
            <Array as="points">
              <mxPoint x="700" y="560" />
              <mxPoint x="310" y="560" />
            </Array>
          </mxGeometry>
        </mxCell>
        <mxCell id="xlLmN8GQoclTvmBlUf5f-29" value="일정시간 아웃&lt;br&gt;일정시간 이후 리스폰" style="rounded=0;whiteSpace=wrap;html=1;" parent="1" vertex="1">
          <mxGeometry x="640" y="410" width="130" height="60" as="geometry" />
        </mxCell>
        <mxCell id="xlLmN8GQoclTvmBlUf5f-32" value="넉백계수 증가" style="rounded=0;whiteSpace=wrap;html=1;" parent="1" vertex="1">
          <mxGeometry x="640" y="320" width="130" height="60" as="geometry" />
        </mxCell>
        <mxCell id="xlLmN8GQoclTvmBlUf5f-33" value="" style="endArrow=classic;html=1;rounded=0;exitX=0.25;exitY=1;exitDx=0;exitDy=0;" parent="1" source="xlLmN8GQoclTvmBlUf5f-12" edge="1">
          <mxGeometry width="50" height="50" relative="1" as="geometry">
            <mxPoint x="450" y="460" as="sourcePoint" />
            <mxPoint x="280" y="340" as="targetPoint" />
          </mxGeometry>
        </mxCell>
        <mxCell id="xlLmN8GQoclTvmBlUf5f-36" style="edgeStyle=orthogonalEdgeStyle;rounded=0;orthogonalLoop=1;jettySize=auto;html=1;" parent="1" source="xlLmN8GQoclTvmBlUf5f-35" edge="1">
          <mxGeometry relative="1" as="geometry">
            <mxPoint x="240" y="450.0000000000001" as="targetPoint" />
          </mxGeometry>
        </mxCell>
        <mxCell id="xlLmN8GQoclTvmBlUf5f-35" value="획득 경험치에 따라&lt;br&gt;레벨업" style="rounded=0;whiteSpace=wrap;html=1;" parent="1" vertex="1">
          <mxGeometry x="180" y="340" width="120" height="60" as="geometry" />
        </mxCell>
        <mxCell id="xlLmN8GQoclTvmBlUf5f-37" value="체력 증가,&lt;br&gt;공격력 증가" style="rounded=0;whiteSpace=wrap;html=1;" parent="1" vertex="1">
          <mxGeometry x="180" y="450" width="120" height="60" as="geometry" />
        </mxCell>
        <mxCell id="xlLmN8GQoclTvmBlUf5f-40" style="edgeStyle=orthogonalEdgeStyle;rounded=0;orthogonalLoop=1;jettySize=auto;html=1;entryX=0.5;entryY=0;entryDx=0;entryDy=0;dashed=1;" parent="1" source="xlLmN8GQoclTvmBlUf5f-39" target="xlLmN8GQoclTvmBlUf5f-12" edge="1">
          <mxGeometry relative="1" as="geometry">
            <Array as="points">
              <mxPoint x="900" y="170" />
              <mxPoint x="310" y="170" />
            </Array>
          </mxGeometry>
        </mxCell>
        <mxCell id="xlLmN8GQoclTvmBlUf5f-44" value="" style="edgeStyle=orthogonalEdgeStyle;rounded=0;orthogonalLoop=1;jettySize=auto;html=1;" parent="1" source="xlLmN8GQoclTvmBlUf5f-39" target="xlLmN8GQoclTvmBlUf5f-43" edge="1">
          <mxGeometry relative="1" as="geometry" />
        </mxCell>
        <mxCell id="xlLmN8GQoclTvmBlUf5f-39" value="5점 선취?" style="rhombus;whiteSpace=wrap;html=1;" parent="1" vertex="1">
          <mxGeometry x="840" y="220" width="120" height="80" as="geometry" />
        </mxCell>
        <mxCell id="xlLmN8GQoclTvmBlUf5f-41" value="X" style="text;html=1;strokeColor=none;fillColor=none;align=center;verticalAlign=middle;whiteSpace=wrap;rounded=0;" parent="1" vertex="1">
          <mxGeometry x="810" y="140" width="60" height="30" as="geometry" />
        </mxCell>
        <mxCell id="xlLmN8GQoclTvmBlUf5f-43" value="게임 끝&lt;br&gt;결과 화면 출력" style="whiteSpace=wrap;html=1;" parent="1" vertex="1">
          <mxGeometry x="1020" y="230" width="120" height="60" as="geometry" />
        </mxCell>
        <mxCell id="xlLmN8GQoclTvmBlUf5f-45" value="피격 시 일정량의 힘 추가로 가해짐" style="rounded=0;whiteSpace=wrap;html=1;" parent="1" vertex="1">
          <mxGeometry x="294" y="680" width="120" height="60" as="geometry" />
        </mxCell>
        <mxCell id="xlLmN8GQoclTvmBlUf5f-47" value="속도 0에 수렴" style="rounded=0;whiteSpace=wrap;html=1;" parent="1" vertex="1">
          <mxGeometry x="150" y="680" width="120" height="60" as="geometry" />
        </mxCell>
        <mxCell id="FftsOW6SnCvQ3cBaNfvc-1" value="공" style="rounded=1;whiteSpace=wrap;html=1;" parent="1" vertex="1">
          <mxGeometry x="30" y="590" width="120" height="60" as="geometry" />
        </mxCell>
      </root>
    </mxGraphModel>
  </diagram>
  <diagram id="rE4-ncqlh80BDT7HTANr" name="ClassDiagram">
    <mxGraphModel dx="2495" dy="2143" grid="1" gridSize="10" guides="1" tooltips="1" connect="1" arrows="1" fold="1" page="1" pageScale="1" pageWidth="827" pageHeight="1169" math="0" shadow="0">
      <root>
        <mxCell id="0" />
        <mxCell id="1" parent="0" />
        <mxCell id="nYtfYp3nzRU2lWBXn0cL-1" value="&amp;lt;&amp;lt;abstract&amp;gt;&amp;gt;&lt;br&gt;CharacterController" style="swimlane;fontStyle=1;align=center;verticalAlign=top;childLayout=stackLayout;horizontal=1;startSize=40;horizontalStack=0;resizeParent=1;resizeParentMax=0;resizeLast=0;collapsible=1;marginBottom=0;whiteSpace=wrap;html=1;strokeWidth=2;" parent="1" vertex="1">
          <mxGeometry x="-230" y="54" width="220" height="230" as="geometry" />
        </mxCell>
        <mxCell id="nYtfYp3nzRU2lWBXn0cL-2" value="- state : CharacterState" style="text;strokeColor=none;fillColor=none;align=left;verticalAlign=top;spacingLeft=4;spacingRight=4;overflow=hidden;rotatable=0;points=[[0,0.5],[1,0.5]];portConstraint=eastwest;whiteSpace=wrap;html=1;" parent="nYtfYp3nzRU2lWBXn0cL-1" vertex="1">
          <mxGeometry y="40" width="220" height="26" as="geometry" />
        </mxCell>
        <mxCell id="B65gwmvfFE3RII9ROtyz-8" value="- state : CharacterState" style="text;strokeColor=none;fillColor=none;align=left;verticalAlign=top;spacingLeft=4;spacingRight=4;overflow=hidden;rotatable=0;points=[[0,0.5],[1,0.5]];portConstraint=eastwest;whiteSpace=wrap;html=1;" parent="nYtfYp3nzRU2lWBXn0cL-1" vertex="1">
          <mxGeometry y="66" width="220" height="26" as="geometry" />
        </mxCell>
        <mxCell id="nYtfYp3nzRU2lWBXn0cL-20" value="- speed : float" style="text;strokeColor=none;fillColor=none;align=left;verticalAlign=top;spacingLeft=4;spacingRight=4;overflow=hidden;rotatable=0;points=[[0,0.5],[1,0.5]];portConstraint=eastwest;whiteSpace=wrap;html=1;" parent="nYtfYp3nzRU2lWBXn0cL-1" vertex="1">
          <mxGeometry y="92" width="220" height="26" as="geometry" />
        </mxCell>
        <mxCell id="nYtfYp3nzRU2lWBXn0cL-19" value="- isInvincible : bool" style="text;strokeColor=none;fillColor=none;align=left;verticalAlign=top;spacingLeft=4;spacingRight=4;overflow=hidden;rotatable=0;points=[[0,0.5],[1,0.5]];portConstraint=eastwest;whiteSpace=wrap;html=1;" parent="nYtfYp3nzRU2lWBXn0cL-1" vertex="1">
          <mxGeometry y="118" width="220" height="26" as="geometry" />
        </mxCell>
        <mxCell id="nYtfYp3nzRU2lWBXn0cL-16" value="- skills : Skill[]" style="text;strokeColor=none;fillColor=none;align=left;verticalAlign=top;spacingLeft=4;spacingRight=4;overflow=hidden;rotatable=0;points=[[0,0.5],[1,0.5]];portConstraint=eastwest;whiteSpace=wrap;html=1;" parent="nYtfYp3nzRU2lWBXn0cL-1" vertex="1">
          <mxGeometry y="144" width="220" height="26" as="geometry" />
        </mxCell>
        <mxCell id="nYtfYp3nzRU2lWBXn0cL-17" value="- team : Team" style="text;strokeColor=none;fillColor=none;align=left;verticalAlign=top;spacingLeft=4;spacingRight=4;overflow=hidden;rotatable=0;points=[[0,0.5],[1,0.5]];portConstraint=eastwest;whiteSpace=wrap;html=1;" parent="nYtfYp3nzRU2lWBXn0cL-1" vertex="1">
          <mxGeometry y="170" width="220" height="26" as="geometry" />
        </mxCell>
        <mxCell id="nYtfYp3nzRU2lWBXn0cL-3" value="" style="line;strokeWidth=1;fillColor=none;align=left;verticalAlign=middle;spacingTop=-1;spacingLeft=3;spacingRight=3;rotatable=0;labelPosition=right;points=[];portConstraint=eastwest;strokeColor=inherit;" parent="nYtfYp3nzRU2lWBXn0cL-1" vertex="1">
          <mxGeometry y="196" width="220" height="8" as="geometry" />
        </mxCell>
        <mxCell id="nYtfYp3nzRU2lWBXn0cL-4" value="+ method(type): type" style="text;strokeColor=none;fillColor=none;align=left;verticalAlign=top;spacingLeft=4;spacingRight=4;overflow=hidden;rotatable=0;points=[[0,0.5],[1,0.5]];portConstraint=eastwest;whiteSpace=wrap;html=1;" parent="nYtfYp3nzRU2lWBXn0cL-1" vertex="1">
          <mxGeometry y="204" width="220" height="26" as="geometry" />
        </mxCell>
        <mxCell id="nYtfYp3nzRU2lWBXn0cL-9" value="GameManager" style="swimlane;fontStyle=1;align=center;verticalAlign=top;childLayout=stackLayout;horizontal=1;startSize=26;horizontalStack=0;resizeParent=1;resizeParentMax=0;resizeLast=0;collapsible=1;marginBottom=0;whiteSpace=wrap;html=1;strokeColor=default;strokeWidth=2;fontFamily=Helvetica;fontSize=12;fontColor=default;fillColor=default;" parent="1" vertex="1">
          <mxGeometry x="650" y="54" width="190" height="138" as="geometry" />
        </mxCell>
        <mxCell id="nYtfYp3nzRU2lWBXn0cL-10" value="&lt;u&gt;{+get} instance : GameManager&lt;br&gt;&lt;/u&gt;" style="text;strokeColor=none;fillColor=none;align=left;verticalAlign=top;spacingLeft=4;spacingRight=4;overflow=hidden;rotatable=0;points=[[0,0.5],[1,0.5]];portConstraint=eastwest;whiteSpace=wrap;html=1;fontSize=12;fontFamily=Helvetica;fontColor=default;" parent="nYtfYp3nzRU2lWBXn0cL-9" vertex="1">
          <mxGeometry y="26" width="190" height="26" as="geometry" />
        </mxCell>
        <mxCell id="nYtfYp3nzRU2lWBXn0cL-13" value="+ redTeam : List&amp;lt;Player&amp;gt;" style="text;strokeColor=none;fillColor=none;align=left;verticalAlign=top;spacingLeft=4;spacingRight=4;overflow=hidden;rotatable=0;points=[[0,0.5],[1,0.5]];portConstraint=eastwest;whiteSpace=wrap;html=1;fontSize=12;fontFamily=Helvetica;fontColor=default;" parent="nYtfYp3nzRU2lWBXn0cL-9" vertex="1">
          <mxGeometry y="52" width="190" height="26" as="geometry" />
        </mxCell>
        <mxCell id="nYtfYp3nzRU2lWBXn0cL-14" value="&lt;span&gt;+ blueTeam : List&amp;lt;Player&amp;gt;&lt;br&gt;&lt;/span&gt;" style="text;strokeColor=none;fillColor=none;align=left;verticalAlign=top;spacingLeft=4;spacingRight=4;overflow=hidden;rotatable=0;points=[[0,0.5],[1,0.5]];portConstraint=eastwest;whiteSpace=wrap;html=1;fontSize=12;fontFamily=Helvetica;fontColor=default;fontStyle=0" parent="nYtfYp3nzRU2lWBXn0cL-9" vertex="1">
          <mxGeometry y="78" width="190" height="26" as="geometry" />
        </mxCell>
        <mxCell id="nYtfYp3nzRU2lWBXn0cL-11" value="" style="line;strokeWidth=1;fillColor=none;align=left;verticalAlign=middle;spacingTop=-1;spacingLeft=3;spacingRight=3;rotatable=0;labelPosition=right;points=[];portConstraint=eastwest;strokeColor=inherit;fontFamily=Helvetica;fontSize=12;fontColor=default;startSize=40;html=1;" parent="nYtfYp3nzRU2lWBXn0cL-9" vertex="1">
          <mxGeometry y="104" width="190" height="8" as="geometry" />
        </mxCell>
        <mxCell id="nYtfYp3nzRU2lWBXn0cL-12" value="+ method(type): type" style="text;strokeColor=none;fillColor=none;align=left;verticalAlign=top;spacingLeft=4;spacingRight=4;overflow=hidden;rotatable=0;points=[[0,0.5],[1,0.5]];portConstraint=eastwest;whiteSpace=wrap;html=1;fontSize=12;fontFamily=Helvetica;fontColor=default;" parent="nYtfYp3nzRU2lWBXn0cL-9" vertex="1">
          <mxGeometry y="112" width="190" height="26" as="geometry" />
        </mxCell>
        <mxCell id="nYtfYp3nzRU2lWBXn0cL-15" value="«enum»&lt;br&gt;&lt;b&gt;GameState&lt;br&gt;&lt;br&gt;BeforeStart,&lt;br&gt;Standby,&lt;br&gt;Playing,&lt;br&gt;Score,&lt;br&gt;Result&lt;br&gt;&lt;/b&gt;" style="html=1;whiteSpace=wrap;strokeColor=default;strokeWidth=2;align=center;verticalAlign=top;fontFamily=Helvetica;fontSize=12;fontColor=default;startSize=40;fillColor=default;" parent="1" vertex="1">
          <mxGeometry x="840" y="54" width="110" height="140" as="geometry" />
        </mxCell>
        <mxCell id="nYtfYp3nzRU2lWBXn0cL-18" value="«enum»&lt;br&gt;&lt;b&gt;CharacterState&lt;br&gt;&lt;br&gt;None,&lt;br&gt;Locomotive,&lt;br&gt;Respawned,&lt;br&gt;Attack,&lt;br&gt;Hit,&lt;br&gt;Ceremony,&lt;br&gt;Die&lt;br&gt;&lt;/b&gt;" style="html=1;whiteSpace=wrap;strokeColor=default;strokeWidth=2;align=center;verticalAlign=top;fontFamily=Helvetica;fontSize=12;fontColor=default;startSize=40;fillColor=default;" parent="1" vertex="1">
          <mxGeometry x="-340" y="54" width="110" height="160" as="geometry" />
        </mxCell>
        <mxCell id="B65gwmvfFE3RII9ROtyz-1" value="&amp;lt;&amp;lt;abstract&amp;gt;&amp;gt;&lt;br&gt;Skill" style="swimlane;fontStyle=1;align=center;verticalAlign=top;childLayout=stackLayout;horizontal=1;startSize=40;horizontalStack=0;resizeParent=1;resizeParentMax=0;resizeLast=0;collapsible=1;marginBottom=0;whiteSpace=wrap;html=1;strokeColor=default;strokeWidth=2;fontFamily=Helvetica;fontSize=12;fontColor=default;fillColor=default;" parent="1" vertex="1">
          <mxGeometry x="-310" y="490" width="160" height="178" as="geometry" />
        </mxCell>
        <mxCell id="B65gwmvfFE3RII9ROtyz-2" value="- coolTimer: float" style="text;strokeColor=none;fillColor=none;align=left;verticalAlign=top;spacingLeft=4;spacingRight=4;overflow=hidden;rotatable=0;points=[[0,0.5],[1,0.5]];portConstraint=eastwest;whiteSpace=wrap;html=1;fontSize=12;fontFamily=Helvetica;fontColor=default;" parent="B65gwmvfFE3RII9ROtyz-1" vertex="1">
          <mxGeometry y="40" width="160" height="26" as="geometry" />
        </mxCell>
        <mxCell id="B65gwmvfFE3RII9ROtyz-5" value="- coolTime: float" style="text;strokeColor=none;fillColor=none;align=left;verticalAlign=top;spacingLeft=4;spacingRight=4;overflow=hidden;rotatable=0;points=[[0,0.5],[1,0.5]];portConstraint=eastwest;whiteSpace=wrap;html=1;fontSize=12;fontFamily=Helvetica;fontColor=default;" parent="B65gwmvfFE3RII9ROtyz-1" vertex="1">
          <mxGeometry y="66" width="160" height="26" as="geometry" />
        </mxCell>
        <mxCell id="B65gwmvfFE3RII9ROtyz-6" value="- castTimer : float" style="text;strokeColor=none;fillColor=none;align=left;verticalAlign=top;spacingLeft=4;spacingRight=4;overflow=hidden;rotatable=0;points=[[0,0.5],[1,0.5]];portConstraint=eastwest;whiteSpace=wrap;html=1;fontSize=12;fontFamily=Helvetica;fontColor=default;" parent="B65gwmvfFE3RII9ROtyz-1" vertex="1">
          <mxGeometry y="92" width="160" height="26" as="geometry" />
        </mxCell>
        <mxCell id="B65gwmvfFE3RII9ROtyz-7" value="- castTime : float" style="text;strokeColor=none;fillColor=none;align=left;verticalAlign=top;spacingLeft=4;spacingRight=4;overflow=hidden;rotatable=0;points=[[0,0.5],[1,0.5]];portConstraint=eastwest;whiteSpace=wrap;html=1;fontSize=12;fontFamily=Helvetica;fontColor=default;" parent="B65gwmvfFE3RII9ROtyz-1" vertex="1">
          <mxGeometry y="118" width="160" height="26" as="geometry" />
        </mxCell>
        <mxCell id="B65gwmvfFE3RII9ROtyz-3" value="" style="line;strokeWidth=1;fillColor=none;align=left;verticalAlign=middle;spacingTop=-1;spacingLeft=3;spacingRight=3;rotatable=0;labelPosition=right;points=[];portConstraint=eastwest;strokeColor=inherit;fontFamily=Helvetica;fontSize=12;fontColor=default;startSize=40;html=1;" parent="B65gwmvfFE3RII9ROtyz-1" vertex="1">
          <mxGeometry y="144" width="160" height="8" as="geometry" />
        </mxCell>
        <mxCell id="B65gwmvfFE3RII9ROtyz-4" value="+ Execute() : void" style="text;strokeColor=none;fillColor=none;align=left;verticalAlign=top;spacingLeft=4;spacingRight=4;overflow=hidden;rotatable=0;points=[[0,0.5],[1,0.5]];portConstraint=eastwest;whiteSpace=wrap;html=1;fontSize=12;fontFamily=Helvetica;fontColor=default;" parent="B65gwmvfFE3RII9ROtyz-1" vertex="1">
          <mxGeometry y="152" width="160" height="26" as="geometry" />
        </mxCell>
        <mxCell id="B65gwmvfFE3RII9ROtyz-9" value="&amp;lt;&amp;lt;abstact&amp;gt;&amp;gt;&lt;br&gt;Item" style="swimlane;fontStyle=1;align=center;verticalAlign=top;childLayout=stackLayout;horizontal=1;startSize=40;horizontalStack=0;resizeParent=1;resizeParentMax=0;resizeLast=0;collapsible=1;marginBottom=0;whiteSpace=wrap;html=1;strokeColor=default;strokeWidth=2;fontFamily=Helvetica;fontSize=12;fontColor=default;fillColor=default;" parent="1" vertex="1">
          <mxGeometry x="560" y="400" width="180" height="74" as="geometry" />
        </mxCell>
        <mxCell id="B65gwmvfFE3RII9ROtyz-10" value="+ field: type" style="text;strokeColor=none;fillColor=none;align=left;verticalAlign=top;spacingLeft=4;spacingRight=4;overflow=hidden;rotatable=0;points=[[0,0.5],[1,0.5]];portConstraint=eastwest;whiteSpace=wrap;html=1;fontSize=12;fontFamily=Helvetica;fontColor=default;" parent="B65gwmvfFE3RII9ROtyz-9" vertex="1">
          <mxGeometry y="40" width="180" height="26" as="geometry" />
        </mxCell>
        <mxCell id="B65gwmvfFE3RII9ROtyz-11" value="" style="line;strokeWidth=1;fillColor=none;align=left;verticalAlign=middle;spacingTop=-1;spacingLeft=3;spacingRight=3;rotatable=0;labelPosition=right;points=[];portConstraint=eastwest;strokeColor=inherit;fontFamily=Helvetica;fontSize=12;fontColor=default;startSize=40;html=1;" parent="B65gwmvfFE3RII9ROtyz-9" vertex="1">
          <mxGeometry y="66" width="180" height="8" as="geometry" />
        </mxCell>
        <mxCell id="B65gwmvfFE3RII9ROtyz-14" value="RecoverHPItem" style="swimlane;fontStyle=1;align=center;verticalAlign=top;childLayout=stackLayout;horizontal=1;startSize=26;horizontalStack=0;resizeParent=1;resizeParentMax=0;resizeLast=0;collapsible=1;marginBottom=0;whiteSpace=wrap;html=1;strokeColor=default;strokeWidth=2;fontFamily=Helvetica;fontSize=12;fontColor=default;fillColor=default;" parent="1" vertex="1">
          <mxGeometry x="350" y="562" width="194" height="86" as="geometry" />
        </mxCell>
        <mxCell id="B65gwmvfFE3RII9ROtyz-15" value="+ field: type" style="text;strokeColor=none;fillColor=none;align=left;verticalAlign=top;spacingLeft=4;spacingRight=4;overflow=hidden;rotatable=0;points=[[0,0.5],[1,0.5]];portConstraint=eastwest;whiteSpace=wrap;html=1;fontSize=12;fontFamily=Helvetica;fontColor=default;" parent="B65gwmvfFE3RII9ROtyz-14" vertex="1">
          <mxGeometry y="26" width="194" height="26" as="geometry" />
        </mxCell>
        <mxCell id="B65gwmvfFE3RII9ROtyz-16" value="" style="line;strokeWidth=1;fillColor=none;align=left;verticalAlign=middle;spacingTop=-1;spacingLeft=3;spacingRight=3;rotatable=0;labelPosition=right;points=[];portConstraint=eastwest;strokeColor=inherit;fontFamily=Helvetica;fontSize=12;fontColor=default;startSize=40;html=1;" parent="B65gwmvfFE3RII9ROtyz-14" vertex="1">
          <mxGeometry y="52" width="194" height="8" as="geometry" />
        </mxCell>
        <mxCell id="B65gwmvfFE3RII9ROtyz-17" value="+ RecoverHP(hp : float) : void" style="text;strokeColor=none;fillColor=none;align=left;verticalAlign=top;spacingLeft=4;spacingRight=4;overflow=hidden;rotatable=0;points=[[0,0.5],[1,0.5]];portConstraint=eastwest;whiteSpace=wrap;html=1;fontSize=12;fontFamily=Helvetica;fontColor=default;" parent="B65gwmvfFE3RII9ROtyz-14" vertex="1">
          <mxGeometry y="60" width="194" height="26" as="geometry" />
        </mxCell>
        <mxCell id="B65gwmvfFE3RII9ROtyz-18" value="IncreaseDamageItem" style="swimlane;fontStyle=1;align=center;verticalAlign=top;childLayout=stackLayout;horizontal=1;startSize=26;horizontalStack=0;resizeParent=1;resizeParentMax=0;resizeLast=0;collapsible=1;marginBottom=0;whiteSpace=wrap;html=1;strokeColor=default;strokeWidth=2;fontFamily=Helvetica;fontSize=12;fontColor=default;fillColor=default;" parent="1" vertex="1">
          <mxGeometry x="560" y="562" width="320" height="86" as="geometry" />
        </mxCell>
        <mxCell id="B65gwmvfFE3RII9ROtyz-19" value="- duration : float" style="text;strokeColor=none;fillColor=none;align=left;verticalAlign=top;spacingLeft=4;spacingRight=4;overflow=hidden;rotatable=0;points=[[0,0.5],[1,0.5]];portConstraint=eastwest;whiteSpace=wrap;html=1;fontSize=12;fontFamily=Helvetica;fontColor=default;" parent="B65gwmvfFE3RII9ROtyz-18" vertex="1">
          <mxGeometry y="26" width="320" height="26" as="geometry" />
        </mxCell>
        <mxCell id="B65gwmvfFE3RII9ROtyz-20" value="" style="line;strokeWidth=1;fillColor=none;align=left;verticalAlign=middle;spacingTop=-1;spacingLeft=3;spacingRight=3;rotatable=0;labelPosition=right;points=[];portConstraint=eastwest;strokeColor=inherit;fontFamily=Helvetica;fontSize=12;fontColor=default;startSize=40;html=1;" parent="B65gwmvfFE3RII9ROtyz-18" vertex="1">
          <mxGeometry y="52" width="320" height="8" as="geometry" />
        </mxCell>
        <mxCell id="B65gwmvfFE3RII9ROtyz-21" value="+ IncreaseDamage(damage : float) : void" style="text;strokeColor=none;fillColor=none;align=left;verticalAlign=top;spacingLeft=4;spacingRight=4;overflow=hidden;rotatable=0;points=[[0,0.5],[1,0.5]];portConstraint=eastwest;whiteSpace=wrap;html=1;fontSize=12;fontFamily=Helvetica;fontColor=default;" parent="B65gwmvfFE3RII9ROtyz-18" vertex="1">
          <mxGeometry y="60" width="320" height="26" as="geometry" />
        </mxCell>
        <mxCell id="B65gwmvfFE3RII9ROtyz-22" value="IncreaseMoveSpeedItem" style="swimlane;fontStyle=1;align=center;verticalAlign=top;childLayout=stackLayout;horizontal=1;startSize=26;horizontalStack=0;resizeParent=1;resizeParentMax=0;resizeLast=0;collapsible=1;marginBottom=0;whiteSpace=wrap;html=1;strokeColor=default;strokeWidth=2;fontFamily=Helvetica;fontSize=12;fontColor=default;fillColor=default;" parent="1" vertex="1">
          <mxGeometry x="910" y="562" width="270" height="86" as="geometry" />
        </mxCell>
        <mxCell id="B65gwmvfFE3RII9ROtyz-23" value="- duration : float" style="text;strokeColor=none;fillColor=none;align=left;verticalAlign=top;spacingLeft=4;spacingRight=4;overflow=hidden;rotatable=0;points=[[0,0.5],[1,0.5]];portConstraint=eastwest;whiteSpace=wrap;html=1;fontSize=12;fontFamily=Helvetica;fontColor=default;" parent="B65gwmvfFE3RII9ROtyz-22" vertex="1">
          <mxGeometry y="26" width="270" height="26" as="geometry" />
        </mxCell>
        <mxCell id="B65gwmvfFE3RII9ROtyz-24" value="" style="line;strokeWidth=1;fillColor=none;align=left;verticalAlign=middle;spacingTop=-1;spacingLeft=3;spacingRight=3;rotatable=0;labelPosition=right;points=[];portConstraint=eastwest;strokeColor=inherit;fontFamily=Helvetica;fontSize=12;fontColor=default;startSize=40;html=1;" parent="B65gwmvfFE3RII9ROtyz-22" vertex="1">
          <mxGeometry y="52" width="270" height="8" as="geometry" />
        </mxCell>
        <mxCell id="B65gwmvfFE3RII9ROtyz-25" value="+ IncreaseMoveSpeed(moveSpeed : float) : void" style="text;strokeColor=none;fillColor=none;align=left;verticalAlign=top;spacingLeft=4;spacingRight=4;overflow=hidden;rotatable=0;points=[[0,0.5],[1,0.5]];portConstraint=eastwest;whiteSpace=wrap;html=1;fontSize=12;fontFamily=Helvetica;fontColor=default;" parent="B65gwmvfFE3RII9ROtyz-22" vertex="1">
          <mxGeometry y="60" width="270" height="26" as="geometry" />
        </mxCell>
        <mxCell id="B65gwmvfFE3RII9ROtyz-26" value="" style="endArrow=block;endSize=16;endFill=0;html=1;rounded=0;fontFamily=Helvetica;fontSize=12;fontColor=default;" parent="1" source="B65gwmvfFE3RII9ROtyz-14" target="B65gwmvfFE3RII9ROtyz-9" edge="1">
          <mxGeometry width="160" relative="1" as="geometry">
            <mxPoint x="460" y="520" as="sourcePoint" />
            <mxPoint x="640" y="310" as="targetPoint" />
          </mxGeometry>
        </mxCell>
        <mxCell id="B65gwmvfFE3RII9ROtyz-28" value="«interface»&lt;br&gt;&lt;b&gt;ITempEffectItem&lt;br&gt;&lt;br&gt;{+get} duration&lt;br&gt;&lt;/b&gt;" style="html=1;whiteSpace=wrap;strokeColor=default;strokeWidth=2;align=center;verticalAlign=top;fontFamily=Helvetica;fontSize=12;fontColor=default;startSize=40;fillColor=default;" parent="1" vertex="1">
          <mxGeometry x="760" y="400" width="200" height="70" as="geometry" />
        </mxCell>
        <mxCell id="B65gwmvfFE3RII9ROtyz-30" value="" style="endArrow=block;endSize=16;endFill=0;html=1;rounded=0;fontFamily=Helvetica;fontSize=12;fontColor=default;exitX=0.4;exitY=0.012;exitDx=0;exitDy=0;exitPerimeter=0;" parent="1" source="B65gwmvfFE3RII9ROtyz-18" target="B65gwmvfFE3RII9ROtyz-9" edge="1">
          <mxGeometry width="160" relative="1" as="geometry">
            <mxPoint x="640" y="540" as="sourcePoint" />
            <mxPoint x="389" y="572" as="targetPoint" />
          </mxGeometry>
        </mxCell>
        <mxCell id="B65gwmvfFE3RII9ROtyz-31" value="" style="endArrow=block;endSize=16;endFill=0;html=1;rounded=0;fontFamily=Helvetica;fontSize=12;fontColor=default;" parent="1" source="B65gwmvfFE3RII9ROtyz-22" target="B65gwmvfFE3RII9ROtyz-9" edge="1">
          <mxGeometry width="160" relative="1" as="geometry">
            <mxPoint x="850" y="530" as="sourcePoint" />
            <mxPoint x="530" y="572" as="targetPoint" />
          </mxGeometry>
        </mxCell>
        <mxCell id="B65gwmvfFE3RII9ROtyz-32" value="" style="endArrow=block;endSize=16;endFill=0;html=1;rounded=0;fontFamily=Helvetica;fontSize=12;fontColor=default;" parent="1" source="B65gwmvfFE3RII9ROtyz-18" target="B65gwmvfFE3RII9ROtyz-28" edge="1">
          <mxGeometry width="160" relative="1" as="geometry">
            <mxPoint x="730" y="540" as="sourcePoint" />
            <mxPoint x="530" y="572" as="targetPoint" />
          </mxGeometry>
        </mxCell>
        <mxCell id="B65gwmvfFE3RII9ROtyz-33" value="" style="endArrow=block;endSize=16;endFill=0;html=1;rounded=0;fontFamily=Helvetica;fontSize=12;fontColor=default;" parent="1" source="B65gwmvfFE3RII9ROtyz-22" target="B65gwmvfFE3RII9ROtyz-28" edge="1">
          <mxGeometry width="160" relative="1" as="geometry">
            <mxPoint x="1030" y="510" as="sourcePoint" />
            <mxPoint x="580" y="572" as="targetPoint" />
          </mxGeometry>
        </mxCell>
        <mxCell id="B65gwmvfFE3RII9ROtyz-35" value="Team" style="swimlane;fontStyle=1;align=center;verticalAlign=top;childLayout=stackLayout;horizontal=1;startSize=26;horizontalStack=0;resizeParent=1;resizeParentMax=0;resizeLast=0;collapsible=1;marginBottom=0;whiteSpace=wrap;html=1;strokeColor=default;strokeWidth=2;fontFamily=Helvetica;fontSize=12;fontColor=default;fillColor=default;" parent="1" vertex="1">
          <mxGeometry x="420" y="54" width="200" height="112" as="geometry" />
        </mxCell>
        <mxCell id="B65gwmvfFE3RII9ROtyz-36" value="+ players : List&amp;lt;Player&amp;gt;" style="text;strokeColor=none;fillColor=none;align=left;verticalAlign=top;spacingLeft=4;spacingRight=4;overflow=hidden;rotatable=0;points=[[0,0.5],[1,0.5]];portConstraint=eastwest;whiteSpace=wrap;html=1;fontSize=12;fontFamily=Helvetica;fontColor=default;" parent="B65gwmvfFE3RII9ROtyz-35" vertex="1">
          <mxGeometry y="26" width="200" height="26" as="geometry" />
        </mxCell>
        <mxCell id="B65gwmvfFE3RII9ROtyz-37" value="" style="line;strokeWidth=1;fillColor=none;align=left;verticalAlign=middle;spacingTop=-1;spacingLeft=3;spacingRight=3;rotatable=0;labelPosition=right;points=[];portConstraint=eastwest;strokeColor=inherit;fontFamily=Helvetica;fontSize=12;fontColor=default;startSize=40;html=1;" parent="B65gwmvfFE3RII9ROtyz-35" vertex="1">
          <mxGeometry y="52" width="200" height="8" as="geometry" />
        </mxCell>
        <mxCell id="B65gwmvfFE3RII9ROtyz-38" value="+ Register(player : Player) : void" style="text;strokeColor=none;fillColor=none;align=left;verticalAlign=top;spacingLeft=4;spacingRight=4;overflow=hidden;rotatable=0;points=[[0,0.5],[1,0.5]];portConstraint=eastwest;whiteSpace=wrap;html=1;fontSize=12;fontFamily=Helvetica;fontColor=default;" parent="B65gwmvfFE3RII9ROtyz-35" vertex="1">
          <mxGeometry y="60" width="200" height="26" as="geometry" />
        </mxCell>
        <mxCell id="B65gwmvfFE3RII9ROtyz-39" value="- Clear() : void" style="text;strokeColor=none;fillColor=none;align=left;verticalAlign=top;spacingLeft=4;spacingRight=4;overflow=hidden;rotatable=0;points=[[0,0.5],[1,0.5]];portConstraint=eastwest;whiteSpace=wrap;html=1;fontSize=12;fontFamily=Helvetica;fontColor=default;" parent="B65gwmvfFE3RII9ROtyz-35" vertex="1">
          <mxGeometry y="86" width="200" height="26" as="geometry" />
        </mxCell>
        <mxCell id="B65gwmvfFE3RII9ROtyz-40" value="NetWorkBehaviour" style="swimlane;fontStyle=1;align=center;verticalAlign=top;childLayout=stackLayout;horizontal=1;startSize=26;horizontalStack=0;resizeParent=1;resizeParentMax=0;resizeLast=0;collapsible=1;marginBottom=0;whiteSpace=wrap;html=1;strokeColor=default;strokeWidth=2;fontFamily=Helvetica;fontSize=12;fontColor=default;fillColor=default;" parent="1" vertex="1">
          <mxGeometry x="-60" y="-160" width="160" height="34" as="geometry" />
        </mxCell>
        <mxCell id="B65gwmvfFE3RII9ROtyz-42" value="" style="line;strokeWidth=1;fillColor=none;align=left;verticalAlign=middle;spacingTop=-1;spacingLeft=3;spacingRight=3;rotatable=0;labelPosition=right;points=[];portConstraint=eastwest;strokeColor=inherit;fontFamily=Helvetica;fontSize=12;fontColor=default;startSize=40;html=1;" parent="B65gwmvfFE3RII9ROtyz-40" vertex="1">
          <mxGeometry y="26" width="160" height="8" as="geometry" />
        </mxCell>
        <mxCell id="B65gwmvfFE3RII9ROtyz-44" value="" style="endArrow=block;endSize=16;endFill=0;html=1;rounded=0;fontFamily=Helvetica;fontSize=12;fontColor=default;" parent="1" source="nYtfYp3nzRU2lWBXn0cL-1" target="B65gwmvfFE3RII9ROtyz-40" edge="1">
          <mxGeometry width="160" relative="1" as="geometry">
            <mxPoint x="-60" y="14" as="sourcePoint" />
            <mxPoint x="412" y="556" as="targetPoint" />
          </mxGeometry>
        </mxCell>
        <mxCell id="B65gwmvfFE3RII9ROtyz-46" value="«interface»&lt;br&gt;&lt;b&gt;IAttack&lt;br&gt;&lt;br&gt;DepeleteHP(targets : CharacterController[]) : void&lt;br&gt;KnockBack(targets : IKnockback[]) : void&lt;br&gt;&lt;/b&gt;" style="html=1;whiteSpace=wrap;strokeColor=default;strokeWidth=2;align=center;verticalAlign=top;fontFamily=Helvetica;fontSize=12;fontColor=default;startSize=40;fillColor=default;" parent="1" vertex="1">
          <mxGeometry x="-120" y="470" width="330" height="90" as="geometry" />
        </mxCell>
        <mxCell id="B65gwmvfFE3RII9ROtyz-47" value="«interface»&lt;br&gt;&lt;b&gt;IBuff&lt;br&gt;&lt;br&gt;Buff(targets : CharacterController[]) : void&lt;br&gt;&lt;/b&gt;" style="html=1;whiteSpace=wrap;strokeColor=default;strokeWidth=2;align=center;verticalAlign=top;fontFamily=Helvetica;fontSize=12;fontColor=default;startSize=40;fillColor=default;" parent="1" vertex="1">
          <mxGeometry x="-120" y="573" width="270" height="75" as="geometry" />
        </mxCell>
        <mxCell id="B65gwmvfFE3RII9ROtyz-48" value="«interface»&lt;br&gt;&lt;b&gt;IRecover&lt;br&gt;&lt;br&gt;Recover(targets : CharacterController[]) : void&lt;br&gt;&lt;/b&gt;" style="html=1;whiteSpace=wrap;strokeColor=default;strokeWidth=2;align=center;verticalAlign=top;fontFamily=Helvetica;fontSize=12;fontColor=default;startSize=40;fillColor=default;" parent="1" vertex="1">
          <mxGeometry x="-120" y="740" width="270" height="70" as="geometry" />
        </mxCell>
        <mxCell id="B65gwmvfFE3RII9ROtyz-54" value="«interface»&lt;br&gt;&lt;b&gt;IDebuff&lt;br&gt;&lt;br&gt;Debuff(targets : CharacterController[]) : void&lt;br&gt;&lt;/b&gt;" style="html=1;whiteSpace=wrap;strokeColor=default;strokeWidth=2;align=center;verticalAlign=top;fontFamily=Helvetica;fontSize=12;fontColor=default;startSize=40;fillColor=default;" parent="1" vertex="1">
          <mxGeometry x="-120" y="660" width="270" height="70" as="geometry" />
        </mxCell>
        <mxCell id="B65gwmvfFE3RII9ROtyz-56" value="«interface»&lt;br&gt;&lt;b&gt;IKnockback&lt;br&gt;&lt;br&gt;Knockback(distance : Vector3) : void&lt;br&gt;&lt;/b&gt;" style="html=1;whiteSpace=wrap;strokeColor=default;strokeWidth=2;align=center;verticalAlign=top;fontFamily=Helvetica;fontSize=12;fontColor=default;startSize=40;fillColor=default;" parent="1" vertex="1">
          <mxGeometry x="110" y="-160" width="230" height="70" as="geometry" />
        </mxCell>
        <mxCell id="B65gwmvfFE3RII9ROtyz-57" value="Ball" style="swimlane;fontStyle=1;align=center;verticalAlign=top;childLayout=stackLayout;horizontal=1;startSize=26;horizontalStack=0;resizeParent=1;resizeParentMax=0;resizeLast=0;collapsible=1;marginBottom=0;whiteSpace=wrap;html=1;strokeColor=default;strokeWidth=2;fontFamily=Helvetica;fontSize=12;fontColor=default;fillColor=default;" parent="1" vertex="1">
          <mxGeometry x="60" y="54" width="260" height="86" as="geometry" />
        </mxCell>
        <mxCell id="B65gwmvfFE3RII9ROtyz-58" value="+ field: type" style="text;strokeColor=none;fillColor=none;align=left;verticalAlign=top;spacingLeft=4;spacingRight=4;overflow=hidden;rotatable=0;points=[[0,0.5],[1,0.5]];portConstraint=eastwest;whiteSpace=wrap;html=1;fontSize=12;fontFamily=Helvetica;fontColor=default;" parent="B65gwmvfFE3RII9ROtyz-57" vertex="1">
          <mxGeometry y="26" width="260" height="26" as="geometry" />
        </mxCell>
        <mxCell id="B65gwmvfFE3RII9ROtyz-59" value="" style="line;strokeWidth=1;fillColor=none;align=left;verticalAlign=middle;spacingTop=-1;spacingLeft=3;spacingRight=3;rotatable=0;labelPosition=right;points=[];portConstraint=eastwest;strokeColor=inherit;fontFamily=Helvetica;fontSize=12;fontColor=default;startSize=40;html=1;" parent="B65gwmvfFE3RII9ROtyz-57" vertex="1">
          <mxGeometry y="52" width="260" height="8" as="geometry" />
        </mxCell>
        <mxCell id="B65gwmvfFE3RII9ROtyz-60" value="+ method(type): type" style="text;strokeColor=none;fillColor=none;align=left;verticalAlign=top;spacingLeft=4;spacingRight=4;overflow=hidden;rotatable=0;points=[[0,0.5],[1,0.5]];portConstraint=eastwest;whiteSpace=wrap;html=1;fontSize=12;fontFamily=Helvetica;fontColor=default;" parent="B65gwmvfFE3RII9ROtyz-57" vertex="1">
          <mxGeometry y="60" width="260" height="26" as="geometry" />
        </mxCell>
        <mxCell id="B65gwmvfFE3RII9ROtyz-62" value="" style="endArrow=block;endSize=16;endFill=0;html=1;rounded=0;fontFamily=Helvetica;fontSize=12;fontColor=default;" parent="1" source="B65gwmvfFE3RII9ROtyz-57" target="B65gwmvfFE3RII9ROtyz-56" edge="1">
          <mxGeometry width="160" relative="1" as="geometry">
            <mxPoint y="85" as="sourcePoint" />
            <mxPoint x="194" y="-80" as="targetPoint" />
          </mxGeometry>
        </mxCell>
        <mxCell id="B65gwmvfFE3RII9ROtyz-63" value="«interface»&lt;br&gt;&lt;b&gt;IHp&lt;br&gt;&lt;br&gt;{+get +set} hpValue : float&lt;br&gt;{+get +set} hpMax : float&lt;br&gt;{+get +set} hpMin : float&lt;br&gt;&lt;br&gt;DepleteHp(amount : float) : void&lt;br&gt;RecoverHp(amount : float) : void&lt;br&gt;&lt;/b&gt;" style="html=1;whiteSpace=wrap;strokeColor=default;strokeWidth=2;align=center;verticalAlign=top;fontFamily=Helvetica;fontSize=12;fontColor=default;startSize=40;fillColor=default;" parent="1" vertex="1">
          <mxGeometry x="-300" y="-160" width="230" height="170" as="geometry" />
        </mxCell>
        <mxCell id="fyKMMHYgpbHbrxyMW4rt-1" value="" style="endArrow=block;endSize=16;endFill=0;html=1;rounded=0;fontFamily=Helvetica;fontSize=12;fontColor=default;" edge="1" parent="1" source="nYtfYp3nzRU2lWBXn0cL-1" target="B65gwmvfFE3RII9ROtyz-63">
          <mxGeometry width="160" relative="1" as="geometry">
            <mxPoint y="85" as="sourcePoint" />
            <mxPoint x="194" y="-80" as="targetPoint" />
          </mxGeometry>
        </mxCell>
        <mxCell id="B65gwmvfFE3RII9ROtyz-61" value="" style="endArrow=block;endSize=16;endFill=0;html=1;rounded=0;fontFamily=Helvetica;fontSize=12;fontColor=default;" parent="1" source="nYtfYp3nzRU2lWBXn0cL-1" target="B65gwmvfFE3RII9ROtyz-56" edge="1">
          <mxGeometry width="160" relative="1" as="geometry">
            <mxPoint x="-66" y="64" as="sourcePoint" />
            <mxPoint x="3" y="-116" as="targetPoint" />
          </mxGeometry>
        </mxCell>
      </root>
    </mxGraphModel>
  </diagram>
</mxfile>
